PathFileType	3	(X/Y/Z)	D:\Vicon Database\Healthy Subjects\S0040\Jan. 30, 2020\Force Plate Walk 9.trc
DataRate	CameraRate	NumFrames	NumMarkers	Units	OrigDataRate	OrigDataStartFrame	OrigNumFrames
100.0	100.0	4	53	mm	100.0	293	299	
Frame#	Time	right_foot_cluster2			right_foot_cluster3			sternum_cluster1			sternum_cluster2			sternum_cluster3			left_asis			right_asis			left_psis			right_psis			sacrum_cluster1			sacrum_cluster2			sacrum_cluster3			left_lat_femoral_epicondyle			left_anterior_thigh15			left_anterior_thigh25			left_anterior_thigh50			left_lateral_thigh25			left_lateral_thigh50			left_thigh_cluster1			left_thigh_cluster2			left_thigh_cluster3			left_fibular_head			left_tibial_tuberosity			left_anterior_shank30			left_lateral_malleolus			left_shank_cluster1			left_shank_cluster2			left_shank_cluster3			left_heel			left_metatarsal2			left_foot_cluster1			left_foot_cluster2			left_foot_cluster3			right_lat_femoral_epicondyle			right_anterior_thigh15			right_anterior_thigh25			right_anterior_thigh50			right_lateral_thigh25			right_lateral_thigh50			right_thigh_cluster1			right_thigh_cluster2			right_thigh_cluster3			right_fibular_head			right_tibial_tuberosity			right_lateral_distal_shank			right_anterior_shank30			right_lateral_malleolus			right_shank_cluster1			right_shank_cluster2			right_shank_cluster3			right_heel			right_metatarsal2			right_foot_cluster1			
		X1	Y1	Z1	X2	Y2	Z2	X3	Y3	Z3	X4	Y4	Z4	X5	Y5	Z5	X6	Y6	Z6	X7	Y7	Z7	X8	Y8	Z8	X9	Y9	Z9	X10	Y10	Z10	X11	Y11	Z11	X12	Y12	Z12	X13	Y13	Z13	X14	Y14	Z14	X15	Y15	Z15	X16	Y16	Z16	X17	Y17	Z17	X18	Y18	Z18	X19	Y19	Z19	X20	Y20	Z20	X21	Y21	Z21	X22	Y22	Z22	X23	Y23	Z23	X24	Y24	Z24	X25	Y25	Z25	X26	Y26	Z26	X27	Y27	Z27	X28	Y28	Z28	X29	Y29	Z29	X30	Y30	Z30	X31	Y31	Z31	X32	Y32	Z32	X33	Y33	Z33	X34	Y34	Z34	X35	Y35	Z35	X36	Y36	Z36	X37	Y37	Z37	X38	Y38	Z38	X39	Y39	Z39	X40	Y40	Z40	X41	Y41	Z41	X42	Y42	Z42	X43	Y43	Z43	X44	Y44	Z44	X45	Y45	Z45	X46	Y46	Z46	X47	Y47	Z47	X48	Y48	Z48	X49	Y49	Z49	X50	Y50	Z50	X51	Y51	Z51	X52	Y52	Z52	X53	Y53	Z53	
293	2.92	3590.1687	115.17227	-218.48358	3591.1101	115.37721	-256.19702	3164.5747	1435.6786	-146.74849	3153.9758	1407.2469	-138.50427	3155.2161	1409.2125	-176.43961	3178.2517	1061.0809	-29.216274	3182.1787	1055.4631	-278.01685	3346.2708	1075.9615	-72.653404	3348.2385	1076.2917	-191.11893				3361.2292	1107.981	-151.78778	3364.0962	1103.4602	-112.26027	3112.3977	547.33124	-20.114662	3047.4316	650.87311	-74.576591	3055.3306	735.34998	-53.017864	3095.5408	864.54004	-29.268682	3155.2434	692.80157	9.3019009	3190.7085	836.10791	41.815353	3178.3591	790.80853	47.209854	3176.0803	760.77972	41.167934	3142.8093	778.21149	44.337967	3095.093	469.23801	-18.027086	3047.7302	467.07358	-80.022064	3069.6011	213.44609	-95.570724	3120.9626	100.8529	-65.170197	3050.2803	410.85208	-109.71594	3044.3049	383.15936	-102.83002	3064.0066	384.58389	-136.11465	3194.9287	66.506363	-98.954193	2977.0305	75.649658	-106.00272	3038.5908	121.43597	-99.053078	3014.0452	105.73417	-89.267166	3010.6548	111.47535	-127.12629	3314.4456	517.30005	-299.32922	3201.4934	576.48547	-255.40271	3171.3396	659.21497	-248.43066	3157.252	794.1001	-248.09576	3279.5525	669.48865	-318.83292	3260.4934	814.62122	-336.13492	3276.3311	766.90521	-342.98734	3268.1326	739.17871	-341.34299	3306.25	742.19977	-334.67212	3361.6824	471.66049	-302.74289	3322.675	423.61679	-265.31235	3565.5996	296.46707	-279.93512	3519.9277	266.36053	-241.5453	3638.1572	222.11984	-265.14627	3372.9475	376.98425	-206.62485	3396.6516	362.74045	-198.36218	3384.416	348.47198	-231.57803	3693.4822	277.99857	-223.26921	3609.0198	75.144402	-223.15884	3584.8386	142.92628	-230.15346
294	2.93	3573.7231	118.90989	-217.66829	3573.5369	119.01698	-255.30968	3151.6243	1437.1177	-146.46318	3140.5112	1408.9803	-138.06834	3141.8994	1411.3197	-176.08633	3163.9639	1062.9569	-28.679869	3169.1487	1056.939	-277.85648	3332.2961	1077.5807	-72.191605	3334.7434	1077.1763	-190.65504				3348.5981	1109.3816	-151.4093	3350.1995	1104.9386	-111.81081	3105.9624	546.97748	-19.123838	3038.5608	649.07184	-72.321785	3044.916	733.91571	-51.404079	3083.1025	864.21875	-28.011288	3146.3474	693.31665	10.143977	3178.6301	837.36993	42.501461	3167.5398	791.92786	47.55545	3165.4683	761.75909	41.674477	3132.2876	778.8692	45.294689	3089.7083	468.54596	-16.696512	3041.5261	465.83441	-77.86216	3067.2844	212.66406	-94.618942	3120.665	100.77921	-65.078156	3044.491	409.47305	-107.88994	3039.0518	381.84662	-100.95092	3058.2056	383.61154	-134.5957	3195.2368	66.702309	-99.189102	2976.8206	75.012428	-105.90473	3038.2996	121.11208	-98.929092	3013.719	105.44025	-89.071564	3010.3745	110.85088	-126.9529	3287.4229	515.94885	-300.61414	3177.0425	578.26984	-256.48276	3149.5474	661.41296	-249.83134	3140.7505	796.2016	-248.71675	3257.2122	668.84778	-319.3671	3243.1204	814.92316	-336.27802	3257.5137	766.62518	-343.02359	3248.8198	739.31201	-341.67154	3286.5823	741.05829	-334.79605	3334.1682	471.22916	-304.84732	3295.7087	422.91971	-266.48813	3541.3694	300.90466	-281.20569	3496.7524	270.39807	-242.0007	3615.3843	228.7701	-266.29724	3346.9275	376.85873	-207.60139	3370.9741	363.0433	-200.50262	3359.1694	348.94095	-233.61086	3668.5713	287.11798	-225.16566	3597.2896	79.329422	-222.66499	3566.0334	146.76794	-228.84273
295	2.94	3553.2869	125.11019	-215.87749	3552.0015	125.22684	-253.94684	3137.5073	1439.2516	-145.81395	3127.062	1410.7166	-137.93416	3128.6775	1412.95	-175.80827	3149.6531	1065.0947	-28.518349	3156.4026	1058.4144	-278.03595	3318.4502	1079.2615	-71.649834	3322.6206	1078.9363	-190.26564				3335.5283	1111.0717	-150.74146	3336.4155	1106.4055	-111.26714	3100.0059	546.45142	-18.07362	3030.4412	647.02246	-70.033752	3034.9368	732.42316	-49.728031	3071.0313	863.66199	-27.271126	3137.604	693.83362	11.065219	3167.1311	838.55298	43.012661	3159.7151	791.88434	47.137207	3155.2688	762.81079	42.518936	3121.5867	779.51263	45.793652	3084.7041	468.04395	-15.357602	3036.3223	464.42502	-76.066238	3065.2878	211.82381	-93.74086	3120.3315	100.78247	-64.912743	3039.3074	408.47537	-106.3921	3034.3057	380.79016	-99.43586	3053.3271	382.63406	-133.17267	3194.7986	66.634232	-99.22084	2976.6074	74.421867	-105.77361	3038.2634	120.69283	-98.76609	3013.5991	104.91765	-88.92794	3010.1604	110.21823	-126.87278	3260.4744	515.32568	-301.90591	3153.1841	580.41431	-256.70721	3128.3093	664.13556	-250.55219	3123.9268	798.94458	-249.1496	3235.4402	668.78223	-320.17123	3226.3245	815.14032	-336.11499	3239.075	766.59973	-343.73932	3229.3979	739.41809	-342.29617	3267.1929	740.11584	-334.81506	3306.6497	470.9693	-306.57935	3268.2241	423.073	-267.3866	3516.6436	305.32776	-282.05124	3473.0889	274.18173	-242.18149	3591.5759	235.35632	-266.76138	3320.9124	376.95663	-209.48682	3344.9746	363.5101	-200.72887	3334.438	349.61267	-234.82295	3644.5071	295.07443	-227.6418	3578.1411	85.322258	-221.76042	3544.7163	152.53398	-227.10973
296	2.95	3528.981	132.34378	-214.33481	3526.2244	131.6326	-252.86874	3125.0349	1440.9857	-146.69092	3113.7813	1412.4048	-137.96236	3115.5864	1414.8488	-176.02583	3135.7271	1066.8577	-28.528181	3143.9258	1059.79	-278.32791	3304.782	1080.9479	-71.105682	3308.623	1079.1837	-189.5594				3321.9539	1112.3184	-150.20148	3322.8533	1107.9747	-110.70392	3094.063	546.07251	-17.266331	3023.0552	645.06433	-68.350769	3025.5911	730.66077	-48.471722	3059.4155	863.02423	-26.758602	3129.1924	694.34924	11.915125	3155.9099	839.57324	43.346668	3149.3396	792.73877	47.733818	3145.4419	763.46887	42.965927	3111.3911	779.87885	46.209267	3079.9954	467.37057	-14.245518	3030.5874	463.46194	-74.519722	3063.6621	211.10312	-93.057053	3120.0815	100.77549	-64.726379	3035.0845	407.40088	-105.20549	3030.5564	379.47101	-98.191948	3049.3174	381.9783	-132.03513	3194.9614	67.11306	-99.356422	2976.4729	73.987999	-105.67986	3037.905	120.46851	-98.67173	3013.3909	104.68727	-88.683907	3010.0046	109.86102	-126.6657	3233.3733	514.91901	-303.17151	3129.126	583.02136	-256.4241	3107.4187	667.3186	-250.62149	3107.4941	801.69244	-249.49109	3214.3782	668.76074	-321.02179	3210.0437	815.83051	-336.08682	3220.8391	766.56464	-343.89481	3210.4519	739.70245	-343.1076	3248.2559	739.61072	-335.04697	3278.1697	470.83978	-308.02969	3240.8479	423.30695	-267.73022	3491.3079	309.80399	-283.04343	3448.7224	278.06393	-242.28297	3566.7515	240.79565	-267.51431	3294.8435	377.58511	-209.93866	3319.2363	364.88956	-201.99788	3309.8206	350.62772	-235.45288	3621.2893	301.16858	-230.41611	3552.5557	92.459297	-220.5629	3520.3721	158.77625	-225.96571
